<svg viewBox="0 0 64 64" xmlns="http://www.w3.org/2000/svg"><g id="Glyph"><g data-name="Glyph" id="Glyph-2"><path d="M45,10.05V8a1,1,0,0,0-2,0v2.05a10,10,0,0,0-9,9H32a1,1,0,0,0,0,2h2a10,10,0,0,0,9,9V32a1,1,0,0,0,2,0V30A10,10,0,0,0,54,21h2a1,1,0,0,0,0-2H54A10,10,0,0,0,45,10.05Zm5,11h1.93A8,8,0,0,1,45,27.93V26a1,1,0,0,0-2,0v1.93A8,8,0,0,1,36.07,21H38a1,1,0,0,0,0-2H36.07A8,8,0,0,1,43,12.07V14a1,1,0,0,0,2,0V12.07A8,8,0,0,1,51.93,19H50a1,1,0,0,0,0,2Z"/><path d="M44,2A17.94,17.94,0,0,0,30.89,7.7,24,24,0,0,0,25,7C14.35,7,5.92,14.16,4,24.84l-2,12a1,1,0,0,0,.23.81A1,1,0,0,0,3,38H8V51a1,1,0,0,0,1,1H24v9a1,1,0,0,0,1,1H44a1,1,0,0,0,1-1V38A18,18,0,0,0,44,2ZM10,46V44c2.24,0,6-.39,6-3a1,1,0,0,1,2,0C18,42.5,17.22,46,10,46ZM20,32.5a1,1,0,0,1-1-1c0-1.08-1.37-2-3-2s-3,.92-3,2a1,1,0,0,1-2,0c0-2.21,2.24-4,5-4s5,1.79,5,4A1,1,0,0,1,20,32.5ZM44,36A16,16,0,1,1,60,20,16,16,0,0,1,44,36Z"/><circle cx="44" cy="20" r="3"/></g></g></svg>