<svg viewBox="0 0 64 64" xmlns="http://www.w3.org/2000/svg"><g id="Glyph"><g data-name="Glyph" id="Glyph-2"><path d="M44,2A17.94,17.94,0,0,0,30.89,7.7,24,24,0,0,0,25,7C14.35,7,5.92,14.16,4,24.84l-2,12a1,1,0,0,0,.23.81A1,1,0,0,0,3,38H8V51a1,1,0,0,0,1,1H24v9a1,1,0,0,0,1,1H44a1,1,0,0,0,1-1V38A18,18,0,0,0,44,2ZM10,46V44c2.24,0,6-.39,6-3a1,1,0,0,1,2,0C18,42.5,17.22,46,10,46ZM20,32.5a1,1,0,0,1-1-1c0-1.08-1.37-2-3-2s-3,.92-3,2a1,1,0,0,1-2,0c0-2.21,2.24-4,5-4s5,1.79,5,4A1,1,0,0,1,20,32.5ZM44,36A16,16,0,1,1,60,20,16,16,0,0,1,44,36Z"/><path d="M53.15,13.37a3.69,3.69,0,0,1-.32-1.26,3.67,3.67,0,0,0-1.17-2.62,3.66,3.66,0,0,0-2.84-.3,4.23,4.23,0,0,1-1.32.08,3.79,3.79,0,0,1-1-.81A3.76,3.76,0,0,0,44,7a3.76,3.76,0,0,0-2.53,1.46,3.79,3.79,0,0,1-1,.81,3.94,3.94,0,0,1-1.32-.08,3.66,3.66,0,0,0-2.84.3,3.67,3.67,0,0,0-1.17,2.62,3.69,3.69,0,0,1-.32,1.26,3.67,3.67,0,0,1-1.09.68A3.7,3.7,0,0,0,31.6,16a3.67,3.67,0,0,0,.59,2.77,3.72,3.72,0,0,1,.5,1.25,3.72,3.72,0,0,1-.5,1.25A3.67,3.67,0,0,0,31.6,24,3.7,3.7,0,0,0,33.76,26a3.67,3.67,0,0,1,1.09.68,3.69,3.69,0,0,1,.32,1.26,3.67,3.67,0,0,0,1.17,2.62,3.66,3.66,0,0,0,2.84.3,4,4,0,0,1,1.32-.08,3.79,3.79,0,0,1,1,.81A3.76,3.76,0,0,0,44,33a3.76,3.76,0,0,0,2.53-1.46,3.79,3.79,0,0,1,1-.81,3.94,3.94,0,0,1,1.32.08,3.66,3.66,0,0,0,2.84-.3,3.67,3.67,0,0,0,1.17-2.62,3.69,3.69,0,0,1,.32-1.26A3.67,3.67,0,0,1,54.24,26,3.7,3.7,0,0,0,56.4,24a3.67,3.67,0,0,0-.59-2.77,3.72,3.72,0,0,1-.5-1.25,3.72,3.72,0,0,1,.5-1.25A3.67,3.67,0,0,0,56.4,16a3.7,3.7,0,0,0-2.16-1.93A3.67,3.67,0,0,1,53.15,13.37ZM44,27a7,7,0,1,1,7-7A7,7,0,0,1,44,27Z"/><circle cx="44" cy="20" r="5"/></g></g></svg>