<svg viewBox="0 0 64 64" xmlns="http://www.w3.org/2000/svg"><g id="Glyph"><g data-name="Glyph" id="Glyph-2"><path d="M44,2A17.94,17.94,0,0,0,30.89,7.7,24,24,0,0,0,25,7C14.35,7,5.92,14.16,4,24.84l-2,12a1,1,0,0,0,.23.81A1,1,0,0,0,3,38H8V51a1,1,0,0,0,1,1H24v9a1,1,0,0,0,1,1H44a1,1,0,0,0,1-1V38A18,18,0,0,0,44,2ZM10,46V44c2.24,0,6-.39,6-3a1,1,0,0,1,2,0C18,42.5,17.22,46,10,46Zm6-13.5c-2.76,0-5-1.79-5-4a1,1,0,0,1,2,0c0,1.08,1.37,2,3,2s3-.92,3-2a1,1,0,0,1,2,0C21,30.71,18.76,32.5,16,32.5ZM44,36A16,16,0,1,1,60,20,16,16,0,0,1,44,36Z"/><path d="M44.61,17.77c.41-.3.29-.9.12-1.38L44,14.79l-.75,1.61c-.1.31-.28,1.05.17,1.38A1.09,1.09,0,0,0,44.61,17.77Z"/><path d="M50.21,10.5a7.23,7.23,0,0,0-4.07,1.13,1.11,1.11,0,0,0-.38,1.4l1.12,2.38c1.12,2.45-.37,5-2.88,4.94s-3.92-2.35-3-4.86L42.2,13a1.11,1.11,0,0,0-.39-1.4,7.24,7.24,0,0,0-4-1.1A6.71,6.71,0,0,0,31,17.14c-.18,6.27,3.77,11.51,12,16a2,2,0,0,0,1.9,0c8.27-4.49,12.22-9.73,12-16A6.72,6.72,0,0,0,50.21,10.5Z"/></g></g></svg>